<?xml version="1.0" encoding="utf-8"?>
<!-- Generator: Adobe Illustrator 24.1.2, SVG Export Plug-In . SVG Version: 6.00 Build 0)  -->
<svg version="1.1" id="svg23" xmlns:svg="http://www.w3.org/2000/svg"
	 xmlns="http://www.w3.org/2000/svg" xmlns:xlink="http://www.w3.org/1999/xlink" x="0px" y="0px" viewBox="0 0 560 340"
	 style="enable-background:new 0 0 560 340;" xml:space="preserve">
<style type="text/css">
	.st0{fill:url(#path1_1_);fill-opacity:0.19;}
	.st1{fill:url(#path2_1_);}
	.st2{clip-path:url(#SVGID_2_);}
	.st3{fill:#3A6680;}
	.st4{fill:#D9D9D9;}
	.st5{fill:#FA5F4F;}
	.st6{fill:#84B5D2;}
	.st7{fill:none;stroke:#5C93B3;}
	.st8{fill:#F8604F;}
</style>
<linearGradient id="path1_1_" gradientUnits="userSpaceOnUse" x1="280" y1="762" x2="280" y2="542" gradientTransform="matrix(1 0 0 -1 0 882)">
	<stop  offset="0" style="stop-color:#909090"/>
	<stop  offset="1" style="stop-color:#4F4F4F"/>
</linearGradient>
<path id="path1" class="st0" d="M20.8,120h518.4L560,340H0L20.8,120z"/>
<linearGradient id="path2_1_" gradientUnits="userSpaceOnUse" x1="280" y1="739" x2="280" y2="565" gradientTransform="matrix(1 0 0 -1 0 882)">
	<stop  offset="0" style="stop-color:#909090"/>
	<stop  offset="1" style="stop-color:#4F4F4F"/>
</linearGradient>
<path id="path2" class="st1" d="M51.3,143h457.3L527,317H33L51.3,143z"/>
<g>
	<defs>
		<path id="SVGID_1_" d="M123,0h314c5.5,0,10,4.5,10,10v189c0,5.5-4.5,10-10,10H123c-5.5,0-10-4.5-10-10V10C113,4.5,117.5,0,123,0z"
			/>
	</defs>
	<clipPath id="SVGID_2_">
		<use xlink:href="#SVGID_1_"  style="overflow:visible;"/>
	</clipPath>
	<g id="g20" class="st2">
		<rect id="rect6" x="113" y="43" class="st3" width="752" height="458"/>
		<rect id="rect7" x="128" y="89" class="st4" width="43" height="5.4"/>
		<rect id="rect8" x="384" y="167" class="st4" width="43" height="16"/>
		<path id="path8" class="st5" d="M144.3,60.7c4.4-4,11.6-6.7,17.8-5.3c13.2,3,12,20.5-1.8,22.5c-4.7,0.7-15-0.4-18.9-3
			C135.8,71.1,140.7,64,144.3,60.7L144.3,60.7z"/>
		<path id="path9" class="st5" d="M127.9,65.6c2.8,0.2,6.2-0.3,8.9,0c1.5,0.2,1.5,1.8,0,1.9c-2.8,0.3-6-0.2-8.9,0
			C126.7,67.4,126.7,65.8,127.9,65.6z"/>
		<path id="path10" class="st5" d="M139.8,62.7c-0.3,0.3-2.1,0.2-2.7,0.3c-1.4,0-2.8,0-4.2-0.1c-0.4,0-0.9,0-1.2,0
			c-1-0.1-1-1.7,0.1-1.9c2.3-0.3,5.2,0.2,7.6,0C140.2,61.2,140.4,62.3,139.8,62.7L139.8,62.7z"/>
		<path id="path11" class="st5" d="M132.1,70.1c0.2,0,0.4,0.1,0.6,0.1c0.9,0,2.8-0.1,3.6,0c0.9,0.2,0.8,1.7-0.2,1.8
			c-0.6,0.1-3.8,0.1-4.3,0C130.7,71.7,130.9,70.1,132.1,70.1L132.1,70.1z"/>
		<path id="path12" class="st6" d="M127,8.4l304.9,0L446.6,44H113L127,8.4z"/>
		<path id="path13" class="st7" d="M113,44h333.6"/>
		<path id="path14" class="st7" d="M113,43.6l166.6-25.3L447,43.6"/>
		<path id="path15" class="st7" d="M127.2,9.2l134,11.1"/>
		<path id="path16" class="st7" d="M432.6,8.8L294.4,20.3"/>
		<rect id="rect16" x="127" y="134" class="st4" width="150" height="48.6"/>
		<rect id="rect17" x="187.3" y="161.1" class="st3" width="71.9" height="5.7"/>
		<rect id="rect18" x="187.3" y="171.3" class="st3" width="49.6" height="5.7"/>
		<rect id="rect19" x="132.8" y="137.4" class="st3" width="67.9" height="5.4"/>
		<rect id="rect20" x="132.8" y="146.7" class="st3" width="52.7" height="5.4"/>
	</g>
</g>
<path id="path20" class="st8" d="M282.6,276.5c-1.2,2-4,2-5.2,0l-26-45c-1.2-2,0.3-4.5,2.6-4.5h52c2.3,0,3.8,2.5,2.6,4.5
	L282.6,276.5z"/>
</svg>
