<svg width="51" height="51" viewBox="0 0 51 51" fill="none" xmlns="http://www.w3.org/2000/svg">
<g clip-path="url(#clip0_5_215)">
<path d="M25.5 0C39.5833 0 51 11.4167 51 25.5C51 39.5833 39.5833 51 25.5 51C11.4167 51 0 39.5833 0 25.5C0 11.4167 11.4167 0 25.5 0ZM25.5 45.9C36.7666 45.9 45.9 36.7666 45.9 25.5C45.9 14.2334 36.7666 5.1 25.5 5.1C14.2334 5.1 5.1 14.2334 5.1 25.5C5.1 36.7666 14.2334 45.9 25.5 45.9Z" fill="#3A6680"/>
</g>
<path d="M25.5 0C28.8487 0 32.1646 0.659576 35.2584 1.94107C38.3522 3.22257 41.1633 5.10088 43.5312 7.46878C45.8991 9.83667 47.7774 12.6478 49.0589 15.7416C50.3404 18.8354 51 22.1513 51 25.5L45.9 25.5C45.9 22.821 45.3723 20.1683 44.3471 17.6933C43.3219 15.2182 41.8193 12.9693 39.925 11.075C38.0307 9.18071 35.7818 7.67805 33.3067 6.65286C30.8317 5.62766 28.179 5.1 25.5 5.1V0Z" fill="#F8604F"/>
<defs>
<clipPath id="clip0_5_215">
<rect width="51" height="51" fill="white"/>
</clipPath>
</defs>
</svg>
