<svg width="50" height="50" viewBox="0 0 50 50" fill="none" xmlns="http://www.w3.org/2000/svg">
<path d="M21.9878 28.0122L40 10M21.9878 28.0122L27.7189 39.4746C27.7908 39.6314 27.9061 39.7642 28.0512 39.8573C28.1964 39.9505 28.3652 40 28.5377 40C28.7101 40 28.8789 39.9505 29.0241 39.8573C29.1692 39.7642 29.2846 39.6314 29.3564 39.4746L40 10M21.9878 28.0122L10.5254 22.2811C10.3686 22.2092 10.2358 22.0939 10.1427 21.9488C10.0495 21.8036 10 21.6348 10 21.4623C10 21.2899 10.0495 21.1211 10.1427 20.9759C10.2358 20.8308 10.3686 20.7154 10.5254 20.6436L40 10" stroke="white" stroke-width="3" stroke-linecap="round" stroke-linejoin="round"/>
</svg>
