<svg width="184" height="117" viewBox="0 0 184 117" fill="none" xmlns="http://www.w3.org/2000/svg">
<g clip-path="url(#clip0_5_81)">
<path d="M70.0583 13.6127C80.0673 3.90525 96.2564 -2.4489 110.192 0.904422C139.959 8.06097 137.175 50.1654 106.196 54.8823C95.6988 56.4824 72.3305 53.9315 63.539 47.684C50.8767 38.6908 61.7732 21.6552 70.0629 13.6127H70.0583Z" fill="#FA5F4F"/>
<path d="M146.989 68.1054V76.5977C147.305 76.6024 147.259 76.2174 147.547 75.9855C149.819 74.1488 152.918 74.0468 155.432 75.4939C160.451 78.388 160.33 88.1002 155.181 90.8274C152.742 92.1167 149.614 92.1075 147.509 90.1966C147.18 89.8997 147.119 89.4406 146.78 89.3385C146.715 89.9786 147.017 90.7949 146.459 91.2494H142.737V68.1054H146.994H146.989ZM149.907 78.133C145.92 78.9585 145.507 88.8005 151.543 88.0445C154.577 87.6642 154.916 84.0233 154.624 81.6115C154.331 79.1997 152.388 77.6228 149.907 78.133Z" fill="#2E3D3B"/>
<path d="M128.058 68.1055V76.3844C131.813 73.0079 137.482 74.3298 139.434 78.9354C142.417 85.9667 137.175 94.6167 129.262 90.7856L127.631 89.3339V91.2448H123.802V68.4209L124.123 68.1008H128.058V68.1055ZM131.19 78.1376C127.036 78.8333 127.11 87.27 130.763 88.0167C137.607 89.4128 137.561 77.0709 131.19 78.1376Z" fill="#2E3D3B"/>
<path d="M4.25638 83.8192C4.1495 83.8981 4.47012 84.0929 4.47012 84.1393V90.934L4.1495 91.2541H0V68.3234H8.40123C9.0843 68.3234 10.9244 68.8522 11.6307 69.1351C19.1909 72.1313 16.2867 83.8239 8.40123 83.8239H4.25173L4.25638 83.8192ZM4.46548 79.7841H8.40123C8.5174 79.7841 9.44209 79.4223 9.6419 79.3249C12.0257 78.184 12.56 74.5106 10.2785 73.0218C10.0926 72.9012 8.91702 72.3493 8.82408 72.3493H4.46548V79.7795V79.7841Z" fill="#2E3D3B"/>
<path d="M93.3847 83.8192V91.2494H88.9193V68.6388L89.2399 68.3188H97.1114C103.71 68.3188 107.051 75.9206 102.957 80.9483C101.851 82.3072 99.0769 83.8192 97.3251 83.8192H93.3894H93.3847ZM93.3847 79.9974C93.5427 80.0531 93.6403 79.7841 93.7054 79.7841H97.5342C97.8502 79.7841 99.0862 78.9261 99.3464 78.6199C100.559 77.1729 100.689 74.1581 98.9886 73.0218C98.8121 72.9012 97.6225 72.3493 97.5342 72.3493H93.3847V79.9928V79.9974Z" fill="#2E3D3B"/>
<path d="M78.492 84.2413H67.4329C67.4701 87.3349 69.7144 88.499 72.5954 88.012C73.6595 87.8312 74.8862 86.5882 75.4113 86.5882C75.7784 86.5882 78.0785 87.9749 78.046 88.3413C77.9623 89.2968 75.2626 90.9711 74.3844 91.2865C69.3009 93.0954 63.5715 90.0389 62.9906 84.5335C61.5595 70.9532 80.4808 70.9857 78.492 84.2413ZM74.4494 81.4816C74.3286 76.3566 67.7117 76.4772 67.4282 81.4816H74.4494Z" fill="#2E3D3B"/>
<path d="M172.941 84.2413C173.173 88.7356 177.983 88.9489 180.915 86.5835L183.48 88.0584C184.023 88.9026 180.617 90.9897 179.86 91.2541C172.397 93.8514 166.589 86.9685 169.014 79.7887C171.147 73.4763 180.362 72.2426 183.261 78.4994C183.424 78.8518 184 80.2665 184 80.5216V83.9166L183.679 84.2366H172.936L172.941 84.2413ZM172.941 81.4816H179.641C180.055 81.2358 179.776 80.401 179.646 79.9882C178.461 76.1989 172.843 77.5949 172.941 81.4816Z" fill="#2E3D3B"/>
<path d="M31.6951 91.2494H27.6525L27.5456 89.7652C23.8515 93.42 16.3843 91.5787 17.2485 85.642C17.4669 84.1439 18.9771 82.8824 20.3107 82.3258C20.9798 82.0475 23.0801 81.4817 23.7214 81.4817H27.4434C27.7965 78.7359 26.0169 77.5022 23.3961 78.184C22.2252 78.4901 21.4956 80.1969 20.9613 80.2062C18.0803 78.9817 16.9976 78.1886 19.8972 75.967C22.7967 73.7453 28.2705 73.8891 30.5149 77.0384C30.8727 77.5439 31.6998 79.3435 31.6998 79.8908V91.2494H31.6951ZM27.4434 83.8192C25.989 83.9491 22.49 84.0419 21.7465 85.4565C21.0728 86.732 21.5932 88.1048 23.0801 88.2811C26.2027 88.6567 27.9081 86.936 27.448 83.8192H27.4434Z" fill="#2E3D3B"/>
<path d="M110.187 84.2413C110.224 88.6382 115.192 89.1298 117.943 86.5835L120.582 87.8776C121.167 88.8052 118.073 90.8923 117.269 91.2077C111.326 93.5175 105.559 89.0788 105.708 82.8592C105.963 72.3586 120.192 71.5423 121.223 81.1941C121.316 82.0568 121.441 83.5827 120.93 84.246H110.187V84.2413ZM116.995 81.4817C117.273 76.5189 110.248 76.621 110.187 81.4817H116.995Z" fill="#2E3D3B"/>
<path d="M57.2566 80.5958C56.792 78.4576 54.3524 77.7712 52.4566 78.5272C48.9902 79.914 49.0366 87.3117 53.1257 88.0074C55.5792 88.4248 56.6526 87.2514 57.7864 85.3173L61.4712 86.5835C59.185 93.7679 48.3721 93.4154 46.0627 86.347C43.6511 78.9724 49.966 72.1406 57.4286 75.2156C58.6042 75.698 61.0669 77.6877 61.0437 79.0374C61.0298 79.8676 57.8839 80.9807 57.252 80.5865L57.2566 80.5958Z" fill="#2E3D3B"/>
<path d="M33.131 25.4816C39.4784 25.9129 47.0571 24.7163 53.2651 25.4537C56.7176 25.8619 56.6061 29.7625 53.2837 30.0964C47.006 30.7272 39.6968 29.6466 33.3122 30.0825C30.2593 29.6697 30.3151 25.9546 33.131 25.4816Z" fill="#FA5F4F"/>
<path d="M96.5723 116.518H92.9572L90.2993 112.056L88.4871 111.847V116.518H85.5085V102.715H91.5725C91.6979 102.715 93.0037 103.095 93.2314 103.183C96.958 104.663 96.5491 109.681 93.1709 111.332L96.5723 116.518ZM88.4917 105.474V109.083C94.17 110.01 94.2443 104.482 88.4917 105.474Z" fill="#F8604F"/>
<path d="M85.5132 68.1054H81.2568V91.2494H85.5132V68.1054Z" fill="#2E3D3B"/>
<path d="M166.133 68.1054H161.877V91.2494H166.133V68.1054Z" fill="#2E3D3B"/>
<path d="M38.6094 74.6869C38.7116 74.7054 39.1159 74.9141 39.1484 75.044V77.0198L40.5285 75.5403C41.6762 74.6498 43.4187 74.1071 44.7895 74.673L44.5758 78.5226C43.0842 78.8565 41.2906 78.7452 40.1149 80.016C39.9384 80.2062 39.3482 81.208 39.3482 81.375V90.9294L39.0276 91.2494H35.1987L34.8781 90.9294V75.0069L35.1987 74.6869C36.2489 74.8075 37.6011 74.5245 38.6001 74.6869H38.6094Z" fill="#2E3D3B"/>
<path d="M46.7969 105.474H40.417V108.447H46.1603C46.0116 108.902 46.7179 110.994 46.0534 110.994H40.417V113.967H46.7969V116.726H37.7544L37.4338 116.406V103.03L37.7544 102.71H46.4763C47.1129 103.387 46.6714 104.589 46.7969 105.47V105.474Z" fill="#F8604F"/>
<path d="M111.465 102.715C111.632 102.821 111.953 105.215 111.358 105.474H105.294V108.447H110.717C111.219 108.781 111.158 110.892 110.824 111.119C110.67 111.249 110.554 110.998 110.503 110.998H105.29V113.971H111.46C111.656 114.936 111.823 115.776 111.46 116.731H102.632L102.311 116.411V102.715H111.456H111.465Z" fill="#F8604F"/>
<path d="M59.9192 18.5708C59.2082 19.2294 55.1424 19.1599 53.8878 19.197C50.7187 19.2851 47.5032 19.2619 44.3481 19.0671C43.4699 19.0115 42.4244 19.1831 41.5973 19.0532C39.3947 18.7053 39.3018 14.8928 41.7924 14.6006C47.0246 13.9884 53.4417 15.0552 58.7993 14.6192C60.6627 14.814 61.2017 17.3881 59.9192 18.5755V18.5708Z" fill="#FA5F4F"/>
<path d="M64.0269 102.715L59.7751 109.403L64.236 116.198C64.2127 116.634 61.2295 116.643 60.8392 116.406C60.342 116.105 58.8411 113.104 58.251 112.408C58.107 112.237 58.0512 111.986 57.7538 112.051L54.7753 116.513H51.4761C51.3971 116.165 51.5458 116.021 51.6852 115.766C52.7958 113.698 54.8775 111.43 56.1321 109.37L51.9036 103.03C51.9036 102.534 54.8171 102.664 55.3004 102.817L57.9583 106.741L60.7231 102.71H64.0222L64.0269 102.715Z" fill="#F8604F"/>
<path d="M72.7487 116.518H69.7702V102.715H75.6204C76.7542 102.715 78.6872 103.768 79.3099 104.765C81.1778 107.775 79.2727 111.411 75.8109 111.819C74.8026 111.94 73.5201 111.546 72.7487 112.163V116.513V116.518ZM72.7487 109.083C74.1985 109.134 76.9772 109.44 76.9726 107.279C76.9679 105.117 74.3472 105.307 72.7487 105.261V109.083Z" fill="#F8604F"/>
<path d="M140.005 106.509C139.271 104.329 135.112 104.435 135.972 107.242C136.385 108.591 141.213 108.642 142.319 111.309C144.856 117.427 134.164 118.92 132.691 114.12C132.264 112.728 133.876 113.011 134.861 112.483C134.982 114.723 139.601 115.298 139.559 113.021C139.531 111.485 136.92 111.249 135.739 110.655C129.792 107.659 133.5 101.11 139.55 102.817C142.017 103.512 143.569 106.161 140.005 106.509Z" fill="#F8604F"/>
<path d="M124.476 106.286C124.401 106.24 124.327 105.855 124.127 105.692C121.767 103.763 118.779 106.221 121.274 107.895C123.314 109.264 127.069 109.018 127.213 112.603C127.426 118.002 117.65 118.637 117.013 113.359L119.021 112.543C120.071 114.059 120.647 114.639 122.64 114.403C124.076 114.231 124.55 112.742 123.458 111.88C121.86 110.618 118.705 110.957 117.631 108.355C115.266 102.636 124.629 100.308 126.734 105.164C126.404 105.614 124.959 106.574 124.485 106.291L124.476 106.286Z" fill="#F8604F"/>
<path d="M42.4987 36.0888C43.0377 36.0517 43.4281 36.2697 43.916 36.2697C45.928 36.2605 50.2587 35.9219 51.964 36.3022C54.0969 36.7799 53.7763 40.3559 51.5737 40.7037C50.2726 40.9078 43.0703 40.9032 41.8946 40.6249C39.404 40.0312 39.6921 36.2929 42.5034 36.0888H42.4987Z" fill="#FA5F4F"/>
</g>
<defs>
<clipPath id="clip0_5_81">
<rect width="184" height="117" fill="white"/>
</clipPath>
</defs>
</svg>
