<svg width="760" height="484" viewBox="0 0 760 484" fill="none" xmlns="http://www.w3.org/2000/svg">
<g clip-path="url(#clip0_5_445)">
<path d="M289.371 56.3126C330.713 16.1551 397.581 -10.1305 455.14 3.7414C578.09 33.3463 566.593 207.522 438.634 227.035C395.278 233.654 298.757 223.101 262.444 197.257C210.143 160.054 255.15 89.582 289.39 56.3126H289.371Z" fill="#FA5F4F"/>
<path d="M607.129 281.735V316.866C608.434 316.885 608.242 315.293 609.432 314.333C618.817 306.735 631.619 306.313 642.002 312.3C662.73 324.272 662.231 364.449 640.966 375.73C630.889 381.064 617.973 381.026 609.278 373.121C607.916 371.893 607.666 369.993 606.265 369.571C605.996 372.219 607.244 375.596 604.941 377.476H589.567V281.735H607.148H607.129ZM619.182 323.217C602.714 326.632 601.006 367.346 625.938 364.218C638.471 362.645 639.872 347.584 638.663 337.607C637.453 327.63 629.431 321.106 619.182 323.217Z" fill="white"/>
<path d="M528.937 281.735V315.983C544.445 302.016 567.86 307.484 575.921 326.536C588.243 355.623 566.593 391.406 533.908 375.558L527.171 369.552V377.457H511.356V283.04L512.681 281.716H528.937V281.735ZM541.873 323.236C524.714 326.114 525.022 361.014 540.107 364.103C568.378 369.878 568.186 318.823 541.873 323.236Z" fill="white"/>
<path d="M17.5807 346.739C17.1392 347.066 18.4636 347.871 18.4636 348.063V376.172L17.1392 377.495H0V282.637H34.7007C37.5221 282.637 45.1225 284.824 48.0398 285.995C79.2666 298.389 67.2711 346.759 34.7007 346.759H17.5615L17.5807 346.739ZM18.4444 330.047H34.7007C35.1806 330.047 38.9999 328.551 39.8252 328.148C49.6712 323.428 51.8784 308.232 42.4547 302.073C41.687 301.574 36.8312 299.291 36.4473 299.291H18.4444V330.028V330.047Z" fill="white"/>
<path d="M385.72 346.739V377.476H367.275V283.942L368.599 282.618H401.112C428.366 282.618 442.166 314.065 425.257 334.863C420.689 340.485 409.231 346.739 401.995 346.739H385.739H385.72ZM385.72 330.93C386.372 331.16 386.775 330.047 387.044 330.047H402.859C404.164 330.047 409.269 326.498 410.344 325.231C415.353 319.245 415.891 306.774 408.866 302.073C408.137 301.574 403.223 299.291 402.859 299.291H385.72V330.91V330.93Z" fill="white"/>
<path d="M324.206 348.485H278.527C278.681 361.283 287.951 366.099 299.85 364.084C304.246 363.336 309.313 358.194 311.481 358.194C312.998 358.194 322.498 363.931 322.364 365.446C322.018 369.399 310.867 376.325 307.24 377.63C286.243 385.113 262.578 372.469 260.179 349.694C254.267 293.516 332.421 293.65 324.206 348.485ZM307.508 337.069C307.009 315.868 279.679 316.367 278.508 337.069H307.508Z" fill="white"/>
<path d="M714.321 348.485C715.281 367.077 735.145 367.96 747.256 358.175L757.85 364.276C760.096 367.768 746.028 376.402 742.899 377.495C712.075 388.24 688.084 359.767 698.103 330.066C706.913 303.953 744.972 298.85 756.948 324.732C757.62 326.191 760 332.042 760 333.098V347.142L758.676 348.466H714.302L714.321 348.485ZM714.321 337.069H741.997C743.705 336.052 742.554 332.599 742.016 330.891C737.122 315.216 713.918 320.991 714.321 337.069Z" fill="white"/>
<path d="M130.915 377.476H114.217L113.775 371.336C98.517 386.456 67.674 378.838 71.2439 354.28C72.146 348.082 78.3836 342.864 83.892 340.561C86.6558 339.41 95.331 337.069 97.9796 337.069H113.353C114.812 325.711 107.461 320.607 96.6361 323.428C91.7995 324.694 88.7862 331.755 86.579 331.793C74.6794 326.728 70.2075 323.447 82.1838 314.257C94.1602 305.066 116.769 305.661 126.04 318.689C127.517 320.78 130.934 328.224 130.934 330.488V377.476H130.915ZM113.353 346.739C107.346 347.277 92.8935 347.66 89.8226 353.512C87.0396 358.789 89.1892 364.468 95.331 365.197C108.229 366.751 115.272 359.633 113.372 346.739H113.353Z" fill="white"/>
<path d="M455.121 348.485C455.275 366.674 475.792 368.708 487.154 358.175L498.055 363.528C500.474 367.365 487.691 375.999 484.371 377.304C459.823 386.859 436.005 368.497 436.619 342.768C437.675 299.329 496.443 295.953 500.704 335.88C501.088 339.449 501.606 345.761 499.495 348.505H455.121V348.485ZM483.239 337.069C484.39 316.54 455.37 316.962 455.121 337.069H483.239Z" fill="white"/>
<path d="M236.495 333.405C234.576 324.56 224.499 321.72 216.669 324.848C202.351 330.584 202.543 361.187 219.432 364.065C229.566 365.792 234 360.937 238.683 352.937L253.903 358.175C244.46 387.895 199.798 386.436 190.259 357.196C180.298 326.689 206.381 298.428 237.205 311.148C242.061 313.144 252.233 321.375 252.137 326.958C252.079 330.392 239.086 334.997 236.476 333.366L236.495 333.405Z" fill="white"/>
<path d="M136.845 105.411C163.063 107.195 194.366 102.245 220.008 105.296C234.268 106.984 233.808 123.12 220.085 124.502C194.155 127.111 163.965 122.64 137.594 124.444C124.984 122.736 125.214 107.368 136.845 105.411Z" fill="#FA5F4F"/>
<path d="M398.886 482.005H383.954L372.975 463.547L365.49 462.684V482.005H353.188V424.905H378.234C378.752 424.905 384.146 426.479 385.086 426.843C400.479 432.964 398.79 453.724 384.837 460.554L398.886 482.005ZM365.509 436.321V451.249C388.963 455.086 389.27 432.215 365.509 436.321Z" fill="#F8604F"/>
<path d="M353.207 281.735H335.626V377.476H353.207V281.735Z" fill="white"/>
<path d="M686.203 281.735H668.623V377.476H686.203V281.735Z" fill="white"/>
<path d="M159.474 308.961C159.896 309.038 161.566 309.901 161.7 310.438V318.612L167.4 312.491C172.141 308.808 179.338 306.563 185 308.904L184.117 324.828C177.956 326.21 170.548 325.749 165.692 331.006C164.963 331.793 162.525 335.937 162.525 336.628V376.152L161.201 377.476H145.386L144.062 376.152V310.285L145.386 308.961C149.724 309.46 155.309 308.29 159.435 308.961H159.474Z" fill="white"/>
<path d="M193.292 436.321H166.94V448.62H190.662C190.048 450.5 192.965 459.153 190.221 459.153H166.94V471.452H193.292V482.868H155.942L154.618 481.544V426.21L155.942 424.886H191.967C194.597 427.687 192.773 432.657 193.292 436.302V436.321Z" fill="#F8604F"/>
<path d="M460.399 424.905C461.09 425.347 462.414 435.247 459.957 436.321H434.911V448.62H457.309C459.382 450.001 459.132 458.731 457.75 459.671C457.117 460.209 456.637 459.173 456.426 459.173H434.892V471.471H460.38C461.186 475.462 461.877 478.935 460.38 482.887H423.913L422.589 481.563V424.905H460.36H460.399Z" fill="#F8604F"/>
<path d="M247.492 76.8229C244.556 79.5474 227.762 79.2596 222.58 79.4131C209.49 79.7777 196.209 79.6817 183.177 78.8759C179.549 78.6457 175.231 79.3556 171.815 78.8183C162.717 77.3794 162.333 61.608 172.621 60.3992C194.232 57.8666 220.737 62.2795 242.867 60.476C250.563 61.2818 252.789 71.9304 247.492 76.8421V76.8229Z" fill="#FA5F4F"/>
<path d="M264.459 424.905L246.897 452.573L265.322 480.681C265.226 482.484 252.905 482.523 251.292 481.544C249.239 480.297 243.039 467.883 240.602 465.005C240.007 464.295 239.777 463.259 238.548 463.528L226.246 481.985H212.619C212.292 480.547 212.907 479.952 213.482 478.896C218.069 470.339 226.668 460.957 231.85 452.438L214.384 426.21C214.384 424.157 226.418 424.694 228.414 425.328L239.393 441.559L250.813 424.886H264.439L264.459 424.905Z" fill="#F8604F"/>
<path d="M300.484 482.005H288.181V424.905H312.345C317.028 424.905 325.012 429.261 327.584 433.386C335.3 445.838 327.431 460.88 313.132 462.569C308.967 463.067 303.67 461.437 300.484 463.988V481.985V482.005ZM300.484 451.249C306.472 451.46 317.949 452.726 317.93 443.785C317.911 434.844 307.086 435.631 300.484 435.439V451.249Z" fill="#F8604F"/>
<path d="M578.282 440.6C575.249 431.582 558.071 432.024 561.622 443.632C563.33 449.215 583.272 449.426 587.84 460.458C598.319 485.765 554.156 491.943 548.072 472.085C546.306 466.329 552.966 467.5 557.035 465.312C557.534 474.579 576.612 476.959 576.439 467.538C576.324 461.187 565.538 460.209 560.663 457.753C536.096 445.358 551.412 418.267 576.401 425.328C586.592 428.206 593.003 439.161 578.282 440.6Z" fill="#F8604F"/>
<path d="M514.139 439.679C513.832 439.487 513.525 437.895 512.7 437.223C502.95 429.242 490.609 439.41 500.915 446.337C509.341 451.997 524.849 450.98 525.444 465.811C526.327 488.144 485.945 490.773 483.315 468.939L491.607 465.562C495.944 471.836 498.324 474.234 506.558 473.255C512.489 472.546 514.446 466.387 509.936 462.818C503.334 457.599 490.302 459 485.868 448.236C476.099 424.579 514.773 414.948 523.467 435.036C522.104 436.897 516.135 440.869 514.178 439.698L514.139 439.679Z" fill="#F8604F"/>
<path d="M175.538 149.291C177.764 149.137 179.377 150.039 181.392 150.039C189.702 150 207.59 148.6 214.634 150.173C223.444 152.149 222.119 166.942 213.022 168.381C207.648 169.225 177.899 169.206 173.043 168.055C162.756 165.599 163.946 150.135 175.557 149.291H175.538Z" fill="#FA5F4F"/>
</g>
<defs>
<clipPath id="clip0_5_445">
<rect width="760" height="484" fill="white"/>
</clipPath>
</defs>
</svg>
