<svg width="752" height="501" viewBox="0 0 752 501" fill="none" xmlns="http://www.w3.org/2000/svg">
<g clip-path="url(#clip0_62_1988)">
<rect y="43" width="752" height="458" fill="#3A6680"/>
<path d="M31.5 1.69873e-05L719 0L752 43H0L31.5 1.69873e-05Z" fill="#84B5D2"/>
<path d="M73.0377 83.613C83.0467 73.9055 99.2358 67.5513 113.171 70.9047C142.938 78.0612 140.155 120.166 109.175 124.883C98.6782 126.483 75.3099 123.932 66.5184 117.684C53.8561 108.691 64.7526 91.6554 73.0423 83.613H73.0377Z" fill="#FA5F4F"/>
<path d="M36.1104 95.482C42.4578 95.9133 50.0366 94.7167 56.2446 95.4542C59.6971 95.8623 59.5856 99.7629 56.2632 100.097C49.9855 100.728 42.6762 99.647 36.2917 100.083C33.2388 99.6702 33.2945 95.9551 36.1104 95.482Z" fill="#FA5F4F"/>
<path d="M62.8986 88.5712C62.1876 89.2298 58.1218 89.1602 56.8671 89.1973C53.6981 89.2854 50.4826 89.2623 47.3275 89.0675C46.4492 89.0118 45.4037 89.1834 44.5766 89.0535C42.3741 88.7057 42.2812 84.8932 44.7718 84.601C50.004 83.9888 56.4211 85.0555 61.7787 84.6195C63.642 84.8143 64.1811 87.3885 62.8986 88.5758V88.5712Z" fill="#FA5F4F"/>
<path d="M45.4781 106.089C46.0172 106.052 46.4075 106.27 46.8954 106.27C48.9074 106.261 53.2381 105.922 54.9435 106.303C57.0763 106.78 56.7557 110.356 54.5531 110.704C53.2521 110.908 46.0497 110.904 44.8741 110.625C42.3834 110.032 42.6715 106.293 45.4828 106.089H45.4781Z" fill="#FA5F4F"/>
<path d="M-0.00012207 43H752" stroke="#5C93B3"/>
<path d="M0 42.5L375.5 12L753 42.5" stroke="#5C93B3"/>
<path d="M32 1L334.02 14.4318" stroke="#5C93B3"/>
<path d="M720.5 0.499939L409.02 14.4318" stroke="#5C93B3"/>
<rect x="40" y="241" width="336" height="172" fill="#D9D9D9"/>
<path d="M65.144 321.464C65.144 322.957 64.8133 324.152 64.152 325.048C63.48 325.944 62.536 326.467 61.32 326.616L61.32 324.248C61.9387 324.173 62.4293 323.875 62.792 323.352C63.144 322.829 63.32 322.163 63.32 321.352C63.32 320.691 63.2027 320.184 62.968 319.832C62.7333 319.469 62.4187 319.288 62.024 319.288C61.6507 319.288 61.352 319.395 61.128 319.608C60.8933 319.821 60.7067 320.189 60.568 320.712L59.976 322.856C59.6667 323.955 59.2453 324.76 58.712 325.272C58.168 325.773 57.4907 326.024 56.68 326.024C55.9867 326.024 55.3893 325.848 54.888 325.496C54.376 325.133 53.9867 324.627 53.72 323.976C53.4427 323.325 53.304 322.563 53.304 321.688C53.304 320.344 53.624 319.272 54.264 318.472C54.8933 317.672 55.7307 317.219 56.776 317.112L56.776 319.48C56.2107 319.587 55.7947 319.848 55.528 320.264C55.2613 320.669 55.128 321.192 55.128 321.832C55.128 322.387 55.2347 322.829 55.448 323.16C55.6613 323.491 55.9493 323.656 56.312 323.656C56.5893 323.656 56.8453 323.565 57.08 323.384C57.304 323.203 57.496 322.824 57.656 322.248L58.248 320.104C58.5573 318.973 58.984 318.163 59.528 317.672C60.0613 317.171 60.7387 316.92 61.56 316.92C62.712 316.92 63.5973 317.32 64.216 318.12C64.8347 318.92 65.144 320.035 65.144 321.464ZM65 315.762L53.48 315.762L53.48 313.298L65 313.298L65 315.762ZM65 308.306L53.48 308.306L53.48 305.842L65 305.842L65 308.306ZM58.056 314.61L58.056 307.186L59.944 307.186L59.944 314.61L58.056 314.61ZM65 304.247L53.48 304.247L53.48 301.783L65 301.783L65 304.247ZM65 300.184L53.48 300.184L53.48 294.712C53.48 293.859 53.6293 293.128 53.928 292.52C54.2267 291.902 54.6427 291.427 55.176 291.096C55.7093 290.755 56.3333 290.584 57.048 290.584C57.7627 290.584 58.392 290.755 58.936 291.096C59.48 291.438 59.9067 291.918 60.216 292.536C60.5147 293.144 60.664 293.87 60.664 294.712L60.664 298.232L58.776 298.232L58.776 294.84C58.776 294.275 58.6213 293.838 58.312 293.528C57.992 293.208 57.576 293.048 57.064 293.048C56.552 293.048 56.1413 293.208 55.832 293.528C55.5227 293.838 55.368 294.275 55.368 294.84L55.368 297.72L65 297.72L65 300.184ZM65.144 284.948C65.144 286.442 64.8133 287.636 64.152 288.532C63.48 289.428 62.536 289.951 61.32 290.1L61.32 287.732C61.9387 287.658 62.4293 287.359 62.792 286.836C63.144 286.314 63.32 285.647 63.32 284.836C63.32 284.175 63.2027 283.668 62.968 283.316C62.7333 282.954 62.4187 282.772 62.024 282.772C61.6507 282.772 61.352 282.879 61.128 283.092C60.8933 283.306 60.7067 283.674 60.568 284.196L59.976 286.34C59.6667 287.439 59.2453 288.244 58.712 288.756C58.168 289.258 57.4907 289.508 56.68 289.508C55.9867 289.508 55.3893 289.332 54.888 288.98C54.376 288.618 53.9867 288.111 53.72 287.46C53.4427 286.81 53.304 286.047 53.304 285.172C53.304 283.828 53.624 282.756 54.264 281.956C54.8933 281.156 55.7307 280.703 56.776 280.596L56.776 282.964C56.2107 283.071 55.7947 283.332 55.528 283.748C55.2613 284.154 55.128 284.676 55.128 285.316C55.128 285.871 55.2347 286.314 55.448 286.644C55.6613 286.975 55.9493 287.14 56.312 287.14C56.5893 287.14 56.8453 287.05 57.08 286.868C57.304 286.687 57.496 286.308 57.656 285.732L58.248 283.588C58.5573 282.458 58.984 281.647 59.528 281.156C60.0613 280.655 60.7387 280.404 61.56 280.404C62.712 280.404 63.5973 280.804 64.216 281.604C64.8347 282.404 65.144 283.519 65.144 284.948ZM65 272.856L55.368 272.856L55.368 276.616L53.48 276.616L53.48 266.632L55.368 266.632L55.368 270.392L65 270.392L65 272.856ZM65.16 260.71C65.16 261.563 65.016 262.352 64.728 263.078C64.44 263.792 64.0347 264.416 63.512 264.95C62.9787 265.472 62.3493 265.883 61.624 266.182C60.888 266.47 60.0773 266.614 59.192 266.614C58.0187 266.614 56.9947 266.363 56.12 265.862C55.2347 265.36 54.5467 264.667 54.056 263.782C53.5653 262.886 53.32 261.867 53.32 260.726C53.32 259.563 53.5653 258.539 54.056 257.654C54.5467 256.768 55.2347 256.075 56.12 255.574C57.0053 255.062 58.0347 254.806 59.208 254.806C60.0827 254.806 60.888 254.955 61.624 255.254C62.3493 255.542 62.9787 255.952 63.512 256.486C64.0347 257.008 64.44 257.632 64.728 258.358C65.016 259.072 65.16 259.856 65.16 260.71ZM63.208 260.726C63.208 260.054 63.0373 259.462 62.696 258.95C62.3547 258.438 61.8853 258.038 61.288 257.75C60.68 257.451 59.976 257.302 59.176 257.302C58.3867 257.302 57.6987 257.446 57.112 257.734C56.5253 258.022 56.072 258.422 55.752 258.934C55.432 259.446 55.272 260.043 55.272 260.726C55.272 261.398 55.432 261.99 55.752 262.502C56.072 263.014 56.5253 263.414 57.112 263.702C57.688 263.979 58.376 264.118 59.176 264.118C59.9867 264.118 60.696 263.974 61.304 263.686C61.9013 263.398 62.3707 262.998 62.712 262.486C63.0427 261.974 63.208 261.387 63.208 260.726Z" fill="#3A6680"/>
<path d="M365.144 399.464C365.144 400.957 364.813 402.152 364.152 403.048C363.48 403.944 362.536 404.467 361.32 404.616L361.32 402.248C361.939 402.173 362.429 401.875 362.792 401.352C363.144 400.829 363.32 400.163 363.32 399.352C363.32 398.691 363.203 398.184 362.968 397.832C362.733 397.469 362.419 397.288 362.024 397.288C361.651 397.288 361.352 397.395 361.128 397.608C360.893 397.821 360.707 398.189 360.568 398.712L359.976 400.856C359.667 401.955 359.245 402.76 358.712 403.272C358.168 403.773 357.491 404.024 356.68 404.024C355.987 404.024 355.389 403.848 354.888 403.496C354.376 403.133 353.987 402.627 353.72 401.976C353.443 401.325 353.304 400.563 353.304 399.688C353.304 398.344 353.624 397.272 354.264 396.472C354.893 395.672 355.731 395.219 356.776 395.112L356.776 397.48C356.211 397.587 355.795 397.848 355.528 398.264C355.261 398.669 355.128 399.192 355.128 399.832C355.128 400.387 355.235 400.829 355.448 401.16C355.661 401.491 355.949 401.656 356.312 401.656C356.589 401.656 356.845 401.565 357.08 401.384C357.304 401.203 357.496 400.824 357.656 400.248L358.248 398.104C358.557 396.973 358.984 396.163 359.528 395.672C360.061 395.171 360.739 394.92 361.56 394.92C362.712 394.92 363.597 395.32 364.216 396.12C364.835 396.92 365.144 398.035 365.144 399.464ZM365 393.762L353.48 393.762L353.48 391.298L365 391.298L365 393.762ZM365 386.306L353.48 386.306L353.48 383.842L365 383.842L365 386.306ZM358.056 392.61L358.056 385.186L359.944 385.186L359.944 392.61L358.056 392.61ZM365 382.247L353.48 382.247L353.48 379.783L365 379.783L365 382.247ZM365 378.184L353.48 378.184L353.48 372.712C353.48 371.859 353.629 371.128 353.928 370.52C354.227 369.902 354.643 369.427 355.176 369.096C355.709 368.755 356.333 368.584 357.048 368.584C357.763 368.584 358.392 368.755 358.936 369.096C359.48 369.438 359.907 369.918 360.216 370.536C360.515 371.144 360.664 371.87 360.664 372.712L360.664 376.232L358.776 376.232L358.776 372.84C358.776 372.275 358.621 371.838 358.312 371.528C357.992 371.208 357.576 371.048 357.064 371.048C356.552 371.048 356.141 371.208 355.832 371.528C355.523 371.838 355.368 372.275 355.368 372.84L355.368 375.72L365 375.72L365 378.184ZM365.144 362.948C365.144 364.442 364.813 365.636 364.152 366.532C363.48 367.428 362.536 367.951 361.32 368.1L361.32 365.732C361.939 365.658 362.429 365.359 362.792 364.836C363.144 364.314 363.32 363.647 363.32 362.836C363.32 362.175 363.203 361.668 362.968 361.316C362.733 360.954 362.419 360.772 362.024 360.772C361.651 360.772 361.352 360.879 361.128 361.092C360.893 361.306 360.707 361.674 360.568 362.196L359.976 364.34C359.667 365.439 359.245 366.244 358.712 366.756C358.168 367.258 357.491 367.508 356.68 367.508C355.987 367.508 355.389 367.332 354.888 366.98C354.376 366.618 353.987 366.111 353.72 365.46C353.443 364.81 353.304 364.047 353.304 363.172C353.304 361.828 353.624 360.756 354.264 359.956C354.893 359.156 355.731 358.703 356.776 358.596L356.776 360.964C356.211 361.071 355.795 361.332 355.528 361.748C355.261 362.154 355.128 362.676 355.128 363.316C355.128 363.871 355.235 364.314 355.448 364.644C355.661 364.975 355.949 365.14 356.312 365.14C356.589 365.14 356.845 365.05 357.08 364.868C357.304 364.687 357.496 364.308 357.656 363.732L358.248 361.588C358.557 360.458 358.984 359.647 359.528 359.156C360.061 358.655 360.739 358.404 361.56 358.404C362.712 358.404 363.597 358.804 364.216 359.604C364.835 360.404 365.144 361.519 365.144 362.948ZM365 354.2L353.48 354.2L353.48 351.736L365 351.736L365 354.2ZM360.536 353.048L358.648 353.048L358.648 346.44L360.536 346.44L360.536 353.048ZM355.368 353.048L353.48 353.048L353.48 346.072L355.368 346.072L355.368 353.048ZM365 344.826L353.48 344.826L353.48 339.674C353.48 338.842 353.624 338.117 353.912 337.498C354.189 336.88 354.584 336.4 355.096 336.058C355.608 335.717 356.205 335.546 356.888 335.546C357.56 335.546 358.152 335.717 358.664 336.058C359.165 336.4 359.56 336.88 359.848 337.498C360.125 338.117 360.264 338.842 360.264 339.674L360.264 342.874L358.456 342.874L358.456 339.738C358.456 339.152 358.323 338.704 358.056 338.394C357.779 338.074 357.395 337.914 356.904 337.914C356.403 337.914 356.024 338.069 355.768 338.378C355.501 338.688 355.368 339.141 355.368 339.738L355.368 342.362L365 342.362L365 344.826ZM365 338.33L359.016 342.954L359.016 340.346L365 335.002L365 338.33ZM365.16 328.678C365.16 329.532 365.016 330.321 364.728 331.046C364.44 331.761 364.035 332.385 363.512 332.918C362.979 333.441 362.349 333.852 361.624 334.15C360.888 334.438 360.077 334.582 359.192 334.582C358.019 334.582 356.995 334.332 356.12 333.83C355.235 333.329 354.547 332.636 354.056 331.75C353.565 330.854 353.32 329.836 353.32 328.694C353.32 327.532 353.565 326.508 354.056 325.622C354.547 324.737 355.235 324.044 356.12 323.542C357.005 323.03 358.035 322.774 359.208 322.774C360.083 322.774 360.888 322.924 361.624 323.222C362.349 323.51 362.979 323.921 363.512 324.454C364.035 324.977 364.44 325.601 364.728 326.326C365.016 327.041 365.16 327.825 365.16 328.678ZM363.208 328.694C363.208 328.022 363.037 327.43 362.696 326.918C362.355 326.406 361.885 326.006 361.288 325.718C360.68 325.42 359.976 325.27 359.176 325.27C358.387 325.27 357.699 325.414 357.112 325.702C356.525 325.99 356.072 326.39 355.752 326.902C355.432 327.414 355.272 328.012 355.272 328.694C355.272 329.366 355.432 329.958 355.752 330.47C356.072 330.982 356.525 331.382 357.112 331.67C357.688 331.948 358.376 332.086 359.176 332.086C359.987 332.086 360.696 331.942 361.304 331.654C361.901 331.366 362.371 330.966 362.712 330.454C363.043 329.942 363.208 329.356 363.208 328.694ZM365 321.497L353.48 321.497L353.48 317.657L364.584 314.457L364.584 315.849L353.48 312.649L353.48 308.793L365 308.793L365 311.225L354.168 311.225L354.168 310.809L365 313.929L365 316.473L354.264 319.561L354.264 319.161L365 319.161L365 321.497Z" fill="#3A6680"/>
<rect x="80" y="254" width="161" height="10" fill="#3A6680"/>
<rect x="175" y="337" width="161" height="10" fill="#3A6680"/>
<rect x="175" y="355" width="111" height="10" fill="#3A6680"/>
<rect x="175" y="373" width="152" height="10" fill="#3A6680"/>
<rect x="175" y="391" width="130" height="10" fill="#3A6680"/>
<rect x="80" y="272" width="143" height="10" fill="#3A6680"/>
<rect x="80" y="290" width="152" height="10" fill="#3A6680"/>
<rect x="80" y="308" width="118" height="10" fill="#3A6680"/>
</g>
<defs>
<clipPath id="clip0_62_1988">
<rect width="752" height="501" rx="28" fill="white"/>
</clipPath>
</defs>
</svg>
