<svg width="50" height="50" viewBox="0 0 50 50" fill="none" xmlns="http://www.w3.org/2000/svg">
<path d="M36.9083 25.5967C36.9083 25.575 36.9217 25.5533 36.9267 25.53C36.9317 25.5067 36.9467 25.4567 36.955 25.42C36.9633 25.3833 36.9633 25.3817 36.9667 25.3617C36.9767 25.305 36.985 25.25 36.99 25.195C36.99 25.1367 36.99 25.0783 36.9983 25.02C36.9983 25.0033 36.9983 24.9883 36.9983 24.9717C36.9983 24.9283 36.9983 24.8867 36.9983 24.8433C36.9983 24.825 36.9983 24.8067 36.9983 24.7883C36.9983 24.7433 36.9867 24.6967 36.9783 24.6517C36.9783 24.64 36.9783 24.6267 36.9783 24.615C36.9683 24.5617 36.955 24.5083 36.94 24.4483C36.94 24.4267 36.9267 24.405 36.9183 24.3833C36.91 24.3617 36.8967 24.3167 36.885 24.285L36.8567 24.215C36.8417 24.18 36.825 24.1433 36.8067 24.1083C36.7883 24.0733 36.79 24.0717 36.78 24.0533C36.755 24.0067 36.7283 23.96 36.6983 23.915L36.6633 23.8633L36.59 23.7633C36.5783 23.7483 36.565 23.7333 36.5533 23.7167C36.515 23.6717 36.4733 23.625 36.4317 23.5817L26.4317 13.5817C26.0559 13.206 25.5464 12.9949 25.015 12.9949C24.4836 12.9949 23.9741 13.206 23.5983 13.5817C23.2226 13.9574 23.0115 14.467 23.0115 14.9983C23.0115 15.5297 23.2226 16.0393 23.5983 16.415L30.1667 23H15C14.4696 23 13.9609 23.2107 13.5858 23.5858C13.2107 23.9609 13 24.4696 13 25C13 25.5304 13.2107 26.0392 13.5858 26.4142C13.9609 26.7893 14.4696 27 15 27H30.1667L23.58 33.585C23.2043 33.9607 22.9932 34.4703 22.9932 35.0017C22.9932 35.533 23.2043 36.0426 23.58 36.4183C23.9557 36.7941 24.4653 37.0052 24.9967 37.0052C25.528 37.0052 26.0376 36.7941 26.4133 36.4183L36.4133 26.4183L36.4233 26.405C36.4665 26.3624 36.5071 26.3173 36.545 26.27C36.5527 26.2615 36.5599 26.2526 36.5667 26.2433C36.595 26.2067 36.6233 26.1683 36.65 26.1283L36.6883 26.0717L36.745 25.9767C36.755 25.955 36.7667 25.935 36.7783 25.915C36.8017 25.8683 36.825 25.8183 36.8467 25.7683L36.87 25.7083C36.885 25.6667 36.8967 25.6333 36.9083 25.5967Z" fill="white"/>
</svg>
