<svg width="55" height="55" viewBox="0 0 55 55" fill="none" xmlns="http://www.w3.org/2000/svg">
<path d="M50.6722 14.8227L33.4847 5.36957C33.2309 5.22995 32.9459 5.15674 32.6563 5.15674C32.3666 5.15674 32.0816 5.22995 31.8278 5.36957L14.6403 14.8227C14.3708 14.9711 14.1461 15.189 13.9896 15.4539C13.8331 15.7187 13.7505 16.0207 13.7505 16.3283C13.7505 16.6359 13.8331 16.9379 13.9896 17.2028C14.1461 17.4676 14.3708 17.6856 14.6403 17.8339L30.9375 26.7972V45.2205L25.7194 42.3502L24.0625 45.3597L31.8278 49.6308C32.0816 49.7704 32.3666 49.8437 32.6563 49.8437C32.9459 49.8437 33.2309 49.7704 33.4847 49.6308L50.6722 40.1777C50.9418 40.0294 51.1666 39.8115 51.3232 39.5466C51.4798 39.2818 51.5625 38.9797 51.5625 38.6721V16.3283C51.5625 16.0206 51.4798 15.7186 51.3232 15.4538C51.1666 15.1889 50.9418 14.971 50.6722 14.8227ZM32.6563 8.83801L46.2774 16.3283L32.6563 23.8186L19.0352 16.3283L32.6563 8.83801ZM48.125 37.6563L34.375 45.2188V26.7955L48.125 19.233V37.6563Z" fill="#2E3D3B"/>
<path d="M17.1875 27.5H3.4375V24.0625H17.1875V27.5ZM20.625 41.25H6.875V37.8125H20.625V41.25ZM24.0625 34.375H10.3125V30.9375H24.0625V34.375Z" fill="#2E3D3B"/>
</svg>
