<svg width="55" height="55" viewBox="0 0 55 55" fill="none" xmlns="http://www.w3.org/2000/svg">
<path d="M22.9167 37.8123L29.7917 40.104C29.7917 40.104 46.9792 36.6665 49.2709 36.6665C51.5625 36.6665 51.5625 38.9582 49.2709 41.2498C46.9792 43.5415 38.9584 50.4165 32.0834 50.4165C25.2084 50.4165 20.625 46.979 16.0417 46.979H4.58337" stroke="#2E3D3B" stroke-width="4" stroke-linecap="round" stroke-linejoin="round"/>
<path d="M4.58337 33.229C6.87504 30.9373 11.4584 27.4998 16.0417 27.4998C20.625 27.4998 31.5105 32.0832 33.2292 34.3748C34.948 36.6665 29.7917 40.104 29.7917 40.104M18.3334 20.6248V11.4582C18.3334 10.8504 18.5748 10.2675 19.0046 9.83772C19.4344 9.40795 20.0173 9.1665 20.625 9.1665H48.125C48.7328 9.1665 49.3157 9.40795 49.7455 9.83772C50.1753 10.2675 50.4167 10.8504 50.4167 11.4582V29.7915" stroke="#2E3D3B" stroke-width="4" stroke-linecap="round" stroke-linejoin="round"/>
<path d="M28.6459 9.1665H40.1042V19.479H28.6459V9.1665Z" stroke="#2E3D3B" stroke-width="4" stroke-linecap="round" stroke-linejoin="round"/>
</svg>
